<?xml version="1.0" standalone="no"?>
<!DOCTYPE svg PUBLIC "-//W3C//DTD SVG 20010904//EN"
 "http://www.w3.org/TR/2001/REC-SVG-20010904/DTD/svg10.dtd">
<svg version="1.0" xmlns="http://www.w3.org/2000/svg"
 width="526.000000pt" height="474.000000pt" viewBox="0 0 526.000000 474.000000"
 preserveAspectRatio="xMidYMid meet">

<g transform="translate(0.000000,474.000000) scale(0.100000,-0.100000)"
fill="#000000" stroke="none">
<path d="M968 4038 c-60 -169 -108 -371 -142 -593 -32 -213 -36 -247 -42 -327
-4 -46 -12 -144 -19 -218 -11 -124 -22 -1080 -12 -1080 4 0 97 143 327 504 47
73 210 330 363 570 l279 436 -156 161 c-189 194 -364 397 -470 542 -43 59 -81
107 -85 107 -4 0 -23 -46 -43 -102z"/>
<path d="M4179 4093 c-105 -154 -312 -396 -522 -610 l-150 -151 234 -366 c129
-201 245 -384 259 -406 14 -22 50 -78 80 -125 30 -47 66 -103 80 -125 14 -22
90 -141 170 -266 l145 -226 8 99 c12 140 0 762 -18 998 -23 296 -55 547 -90
708 -51 231 -54 244 -111 411 -19 55 -34 101 -34 103 0 2 -4 3 -10 3 -5 0 -24
-21 -41 -47z"/>
<path d="M1886 3097 c-33 -51 -116 -177 -185 -282 -68 -104 -175 -266 -236
-360 -62 -93 -159 -242 -217 -330 -58 -88 -171 -261 -253 -385 -81 -124 -186
-283 -233 -355 -47 -71 -107 -163 -134 -202 -27 -40 -46 -73 -44 -73 3 0 70
60 149 133 147 135 307 281 540 491 73 65 159 144 192 175 33 31 107 99 165
151 58 51 155 140 215 196 61 55 147 134 192 175 306 275 371 335 369 344 -1
6 -47 50 -102 99 -54 48 -154 138 -222 200 -67 61 -126 112 -130 113 -4 1 -34
-39 -66 -90z"/>
<path d="M3174 3097 c-55 -51 -157 -143 -227 -205 -70 -63 -127 -117 -126
-120 0 -4 46 -47 102 -96 56 -49 131 -116 167 -150 36 -34 112 -104 170 -155
58 -52 137 -124 175 -160 39 -36 113 -104 165 -151 52 -47 149 -134 215 -195
66 -60 215 -195 330 -300 115 -104 266 -242 335 -305 152 -140 176 -160 164
-140 -5 9 -45 69 -88 135 -44 66 -149 226 -234 355 -85 129 -194 293 -241 364
-47 71 -88 134 -91 140 -3 6 -54 85 -114 176 -112 168 -322 489 -495 752 -53
81 -98 147 -101 147 -3 0 -50 -41 -106 -92z"/>
<path d="M2500 2504 c-58 -52 -161 -145 -230 -206 -69 -61 -152 -136 -185
-167 -33 -31 -98 -90 -145 -131 -47 -41 -132 -118 -190 -170 -58 -52 -189
-169 -290 -260 -101 -91 -236 -212 -300 -270 -64 -58 -194 -175 -290 -261 -96
-86 -211 -188 -255 -228 -44 -39 -151 -135 -238 -212 -87 -78 -156 -143 -153
-146 4 -5 87 27 191 72 31 14 122 51 315 130 63 26 157 65 207 86 51 22 95 39
98 39 2 0 33 13 67 29 35 15 74 32 88 36 14 4 48 18 75 30 28 13 73 32 100 43
82 32 581 237 650 267 17 8 131 55 255 105 124 51 239 98 255 105 96 40 91 40
170 5 22 -10 76 -32 120 -50 44 -18 94 -38 110 -45 17 -7 91 -38 165 -68 74
-30 268 -110 430 -177 309 -128 432 -179 515 -212 28 -11 64 -26 80 -33 17 -8
55 -24 85 -35 30 -12 71 -28 90 -37 61 -27 73 -31 200 -83 69 -29 161 -67 206
-86 45 -19 84 -34 87 -34 4 0 30 -11 59 -24 71 -33 156 -66 169 -66 5 0 -30
35 -78 77 -49 42 -138 122 -199 178 -60 55 -191 172 -289 260 -99 88 -231 207
-295 265 -144 130 -327 294 -473 424 -62 54 -134 119 -162 145 -27 26 -93 84
-145 131 -87 77 -193 172 -479 430 -218 196 -269 240 -277 239 -5 0 -56 -43
-114 -95z"/>
</g>
</svg>
